<svg width="21" height="27" viewBox="0 0 21 27" fill="none" xmlns="http://www.w3.org/2000/svg">
<path d="M5.20931 0V16.0867C5.20931 17.8441 5.66808 19.1908 6.58563 20.1269C7.50318 21.0555 8.7944 21.518 10.463 21.518C12.1501 21.518 13.4524 21.0555 14.37 20.1269C15.2875 19.1908 15.7463 17.8441 15.7463 16.0867V0H21V16.0423C21 18.2548 20.519 20.1232 19.5645 21.6512C18.6062 23.1829 17.3224 24.3298 15.7167 25.0994C14.1184 25.8689 12.3425 26.2537 10.389 26.2537C8.44292 26.2537 6.68182 25.8689 5.10571 25.0994C3.537 24.3298 2.29387 23.1829 1.37632 21.6512C0.458774 20.1232 0 18.2548 0 16.0423V0H5.20931Z" fill="white"/>
</svg>
