<svg width="36" height="35" viewBox="0 0 36 35" fill="none" xmlns="http://www.w3.org/2000/svg">
<path d="M18 35C27.9405 35 36 27.1644 36 17.5C36 7.83562 27.9405 0 18 0C8.0595 0 0 7.83562 0 17.5C0 27.1644 8.0595 35 18 35ZM9.171 24.5766L11.7855 20.5034L13.5292 17.7866C13.5225 17.6903 13.5 17.5984 13.5 17.5C13.5 15.0828 15.5138 13.125 18 13.125C18.1012 13.125 18.1957 13.1469 18.2948 13.1534L21.0915 11.4581L25.2788 8.91625C25.4948 8.78595 25.7498 8.73019 26.0024 8.75797C26.2551 8.78575 26.4908 8.89545 26.6715 9.06937C26.8517 9.24389 26.9654 9.47279 26.994 9.71847C27.0226 9.96415 26.9644 10.212 26.829 10.4212L24.2145 14.4944L22.4707 17.2113C22.4775 17.3097 22.5 17.4016 22.5 17.5C22.5 19.9172 20.4862 21.875 18 21.875C17.8988 21.875 17.8043 21.8531 17.7053 21.8466L14.9085 23.5419L10.7213 26.0837C10.5055 26.2144 10.2506 26.2701 9.99813 26.2419C9.74563 26.2137 9.5104 26.1032 9.33075 25.9284C8.95725 25.5697 8.892 25.0097 9.171 24.5766ZM20.25 17.5C20.25 17.2127 20.1918 16.9283 20.0787 16.6629C19.9657 16.3975 19.7999 16.1563 19.591 15.9532C19.3821 15.7501 19.134 15.5889 18.861 15.479C18.5881 15.3691 18.2955 15.3125 18 15.3125C17.4033 15.3125 16.831 15.543 16.409 15.9532C16.2001 16.1563 16.0343 16.3975 15.9213 16.6629C15.8082 16.9283 15.75 17.2127 15.75 17.5C15.75 18.0802 15.9871 18.6366 16.409 19.0468C16.831 19.457 17.4033 19.6875 18 19.6875C18.5967 19.6875 19.169 19.457 19.591 19.0468C20.0129 18.6366 20.25 18.0802 20.25 17.5Z" fill="#282828"/>
</svg>
