<svg width="39" height="35" viewBox="0 0 39 35" fill="none" xmlns="http://www.w3.org/2000/svg">
<path fill-rule="evenodd" clip-rule="evenodd" d="M17.1071 0.893804C17.7797 0.317049 18.6364 0 19.5223 0C20.4083 0 21.265 0.317049 21.9375 0.893804L33.6905 10.9663L38.3038 14.6576C38.4941 14.8099 38.6525 14.9981 38.77 15.2116C38.8875 15.425 38.9618 15.6596 38.9886 15.9017C39.0155 16.1439 38.9944 16.389 38.9266 16.6231C38.8587 16.8571 38.7454 17.0755 38.5932 17.2657C38.4409 17.456 38.2527 17.6144 38.0392 17.7319C37.8258 17.8494 37.5913 17.9237 37.3491 17.9505C37.1069 17.9774 36.8618 17.9563 36.6278 17.8885C36.3937 17.8206 36.1754 17.7073 35.9851 17.5551L34.362 16.2566V30.9461C34.362 31.93 33.9711 32.8736 33.2754 33.5694C32.5796 34.2651 31.636 34.656 30.6521 34.656H23.2322V25.3812C23.2322 24.3972 22.8414 23.4536 22.1456 22.7579C21.4499 22.0621 20.5062 21.6712 19.5223 21.6712C18.5384 21.6712 17.5947 22.0621 16.899 22.7579C16.2032 23.4536 15.8124 24.3972 15.8124 25.3812V34.656H8.39253C7.4086 34.656 6.46496 34.2651 5.76922 33.5694C5.07347 32.8736 4.68261 31.93 4.68261 30.9461V16.2547L3.05951 17.5532C2.87056 17.7146 2.65111 17.8363 2.4142 17.9112C2.17729 17.9861 1.92774 18.0127 1.68037 17.9893C1.433 17.9659 1.19285 17.8931 0.974176 17.7751C0.755501 17.6571 0.562757 17.4964 0.407386 17.3025C0.252015 17.1086 0.137183 16.8854 0.0697077 16.6463C0.00223204 16.4072 -0.0165123 16.1569 0.0145869 15.9104C0.0456862 15.6639 0.125995 15.4261 0.250747 15.2112C0.375499 14.9964 0.542152 14.8087 0.740812 14.6595L5.3541 10.9681L17.1071 0.893804Z" fill="white"/>
</svg>
