<svg width="45" height="45" viewBox="0 0 45 45" fill="none" xmlns="http://www.w3.org/2000/svg">
<path d="M22.5 0C18.0499 0 13.6998 1.3196 9.99968 3.79193C6.29957 6.26427 3.41569 9.77828 1.71272 13.8896C0.00974889 18.001 -0.435826 22.525 0.432341 26.8895C1.30051 31.2541 3.44343 35.2632 6.59011 38.4099C9.73679 41.5566 13.7459 43.6995 18.1105 44.5677C22.4751 45.4358 26.9991 44.9903 31.1104 43.2873C35.2217 41.5843 38.7357 38.7004 41.2081 35.0003C43.6804 31.3002 45 26.9501 45 22.5C45 19.5453 44.418 16.6194 43.2873 13.8896C42.1566 11.1598 40.4992 8.67942 38.4099 6.5901C36.3206 4.50078 33.8402 2.84344 31.1104 1.71271C28.3806 0.58198 25.4548 0 22.5 0ZM29.25 24.75H24.75V29.25C24.75 29.8467 24.513 30.419 24.091 30.841C23.669 31.2629 23.0967 31.5 22.5 31.5C21.9033 31.5 21.331 31.2629 20.909 30.841C20.4871 30.419 20.25 29.8467 20.25 29.25V24.75H15.75C15.1533 24.75 14.581 24.5129 14.159 24.091C13.7371 23.669 13.5 23.0967 13.5 22.5C13.5 21.9033 13.7371 21.331 14.159 20.909C14.581 20.4871 15.1533 20.25 15.75 20.25H20.25V15.75C20.25 15.1533 20.4871 14.581 20.909 14.159C21.331 13.7371 21.9033 13.5 22.5 13.5C23.0967 13.5 23.669 13.7371 24.091 14.159C24.513 14.581 24.75 15.1533 24.75 15.75V20.25H29.25C29.8467 20.25 30.419 20.4871 30.841 20.909C31.263 21.331 31.5 21.9033 31.5 22.5C31.5 23.0967 31.263 23.669 30.841 24.091C30.419 24.5129 29.8467 24.75 29.25 24.75Z" fill="white"/>
</svg>
