<svg width="83" height="132" viewBox="0 0 83 132" fill="none" xmlns="http://www.w3.org/2000/svg">
<mask id="mask0_2_125" style="mask-type:luminance" maskUnits="userSpaceOnUse" x="-1" y="0" width="85" height="132">
<path d="M-0.0110844 0H83.3727V132H-0.0110844V0Z" fill="white"/>
</mask>
<g mask="url(#mask0_2_125)">
<path d="M78.5925 74.6447L42.689 -0.118407L26.6501 33.2765L20.5083 30.7828L22.4693 52.5861L39.2 38.3824L33.8648 36.2105L42.689 17.8333L71.5738 77.9857C76.3615 87.9494 75.7547 99.5485 69.957 109.009C64.2074 118.384 54.6433 123.945 43.7176 124.26C43.0331 124.278 42.3449 124.278 41.6568 124.26C30.7348 123.945 21.1706 118.384 15.421 109.009C10.1339 100.381 9.16456 89.9732 12.6683 80.6496L17.6335 83.406L18.3328 61.525L0 73.6161L5.81248 76.8424C0.973064 88.6635 2.03122 102.024 8.78347 113.042C15.8243 124.526 28.0302 131.611 41.4311 132C41.8491 132.011 42.2672 132.018 42.689 132.018C43.1108 132.018 43.5289 132.011 43.9433 132C57.3479 131.611 69.5537 124.526 76.5945 113.042C83.7723 101.336 84.516 86.9837 78.5925 74.6447Z" fill="white"/>
</g>
</svg>
