<svg width="9" height="8" viewBox="0 0 9 8" fill="none" xmlns="http://www.w3.org/2000/svg">
<path d="M4.13637 8.00001C3.34849 8.00001 2.63637 7.82955 2 7.48485C1.37121 7.14394 0.882576 6.66667 0.530303 6.06061C0.174242 5.45455 0 4.76894 0 4C0 3.22349 0.174242 2.53788 0.530303 1.9394C0.882576 1.33333 1.37121 0.859849 2 0.515152C2.63637 0.174242 3.34849 0 4.13637 0C4.93182 0 5.65152 0.174242 6.28788 0.515152C6.92425 0.859849 7.41667 1.33333 7.77273 1.9394C8.12501 2.53788 8.30304 3.22349 8.30304 4C8.30304 4.76894 8.12501 5.45455 7.77273 6.06061C7.41667 6.66667 6.92425 7.14394 6.28788 7.48485C5.65152 7.82955 4.93182 8.00001 4.13637 8.00001ZM4.13637 6.4394C4.81061 6.4394 5.36743 6.2197 5.80303 5.77273C6.24622 5.31819 6.4697 4.72728 6.4697 4C6.4697 3.26515 6.24622 2.67424 5.80303 2.22727C5.36743 1.78409 4.81061 1.56061 4.13637 1.56061C3.4697 1.56061 2.91667 1.78409 2.48485 2.22727C2.04924 2.67424 1.83333 3.26515 1.83333 4C1.83333 4.72728 2.04924 5.31819 2.48485 5.77273C2.91667 6.2197 3.4697 6.4394 4.13637 6.4394Z" fill="white"/>
</svg>
