<svg width="32" height="33" viewBox="0 0 32 33" fill="none" xmlns="http://www.w3.org/2000/svg">
<g clip-path="url(#clip0_8_12)">
<path d="M31.9831 16.8087C31.9831 15.4567 31.8742 14.4701 31.6386 13.447H16.3187V19.5492H25.3112C25.1299 21.0657 24.1509 23.3495 21.9753 24.8841L21.9448 25.0884L26.7886 28.87L27.1242 28.9037C30.2063 26.0352 31.9831 21.8148 31.9831 16.8087Z" fill="#4285F4"/>
<path d="M16.3187 32.8866C20.7243 32.8866 24.4228 31.4249 27.1242 28.9037L21.9753 24.8841C20.5974 25.8525 18.7481 26.5285 16.3187 26.5285C12.0038 26.5285 8.34154 23.6601 7.03605 19.6955L6.84469 19.7118L1.80796 23.64L1.7421 23.8245C4.42532 29.1959 9.93688 32.8866 16.3187 32.8866Z" fill="#34A853"/>
<path d="M7.03605 19.6955C6.69158 18.6723 6.49223 17.576 6.49223 16.4433C6.49223 15.3105 6.69158 14.2143 7.01792 13.1912L7.0088 12.9733L1.90895 8.98204L1.74209 9.06202C0.636208 11.291 0.00164795 13.7941 0.00164795 16.4433C0.00164795 19.0925 0.636208 21.5955 1.74209 23.8245L7.03605 19.6955Z" fill="#FBBC05"/>
<path d="M16.3187 6.35804C19.3827 6.35804 21.4494 7.69177 22.6279 8.80634L27.233 4.27526C24.4048 1.62607 20.7243 0 16.3187 0C9.93688 0 4.42532 3.69058 1.7421 9.06203L7.01793 13.1912C8.34154 9.22652 12.0038 6.35804 16.3187 6.35804Z" fill="#EB4335"/>
</g>
<defs>
<clipPath id="clip0_8_12">
<rect width="32" height="33" fill="white"/>
</clipPath>
</defs>
</svg>
