<svg width="32" height="29" viewBox="0 0 32 29" fill="none" xmlns="http://www.w3.org/2000/svg">
<g clip-path="url(#clip0_8_19)">
<path fill-rule="evenodd" clip-rule="evenodd" d="M32 29H24.9273V18.805C24.9273 16.1371 23.8218 14.3151 21.3884 14.3151C19.528 14.3151 18.4931 15.5447 18.0116 16.7294C17.8305 17.1542 17.8589 17.7466 17.8589 18.3389V29H10.8524C10.8524 29 10.9425 10.941 10.8524 9.29957H17.8589V12.3917C18.2735 11.0396 20.512 9.11035 24.0844 9.11035C28.5171 9.11035 32 11.9437 32 18.046V29ZM3.76727 6.8353H3.72145C1.464 6.8353 0 5.32947 0 3.42055C0 1.47465 1.50691 0 3.81018 0C6.11127 0 7.52655 1.47103 7.57091 3.41475C7.57091 5.32368 6.11127 6.8353 3.76727 6.8353ZM0.807273 9.29957H7.04436V29H0.807273V9.29957Z" fill="#007EBB"/>
</g>
<defs>
<clipPath id="clip0_8_19">
<rect width="32" height="29" fill="white"/>
</clipPath>
</defs>
</svg>
