<svg width="10" height="11" viewBox="0 0 10 11" fill="none" xmlns="http://www.w3.org/2000/svg">
<path d="M5.7219 11C4.64409 11 3.66535 10.7623 2.78963 10.2867C1.92183 9.81124 1.24027 9.15743 0.744957 8.32133C0.245678 7.4892 0 6.54611 0 5.5C0 4.44597 0.245678 3.49892 0.744957 2.66283C1.25216 1.83069 1.93768 1.18084 2.80548 0.713257C3.6812 0.237752 4.65994 0 5.73775 0C6.61348 0 7.40995 0.154539 8.13113 0.459654C8.86023 0.756845 9.47047 1.19669 9.96974 1.77522L8.68588 2.99568C7.91319 2.15166 6.96218 1.72767 5.83286 1.72767C5.09186 1.72767 4.43012 1.89409 3.85159 2.21902C3.26909 2.53602 2.8134 2.97983 2.48847 3.55043C2.17147 4.12104 2.01297 4.7709 2.01297 5.5C2.01297 6.22118 2.17147 6.86312 2.48847 7.43372C2.8134 8.00433 3.26909 8.45606 3.85159 8.78098C4.43012 9.09799 5.09186 9.25649 5.83286 9.25649C6.96218 9.25649 7.91319 8.83646 8.68588 7.98848L9.96974 9.20894C9.47047 9.79143 8.86023 10.2352 8.13113 10.5404C7.40202 10.8455 6.59763 11 5.7219 11Z" fill="white"/>
</svg>
