<svg width="20" height="21" viewBox="0 0 20 21" fill="none" xmlns="http://www.w3.org/2000/svg">
<path d="M11.4653 0C13.9307 0 15.9208 0.783416 17.4356 2.34653C18.9579 3.90223 19.7228 6.07054 19.7228 8.85148V21H14.495V9.56435C14.495 7.92327 14.0829 6.66089 13.2624 5.77723C12.4381 4.88614 11.3168 4.44059 9.89109 4.44059C8.44307 4.44059 7.30693 4.88614 6.47525 5.77723C5.64356 6.66089 5.22772 7.92327 5.22772 9.56435V21H0V0.29703H5.22772V2.88119C5.91831 1.98267 6.80569 1.27723 7.88614 0.772277C8.97401 0.259901 10.1658 0 11.4653 0Z" fill="white"/>
</svg>
