<svg width="41" height="43" viewBox="0 0 41 43" fill="none" xmlns="http://www.w3.org/2000/svg">
<path d="M4.83655 19.393C4.75225 20.081 4.68903 20.769 4.68903 21.5C4.68903 22.231 4.75225 22.919 4.83655 23.607L0.389709 27.1545C-0.0107193 27.477 -0.116093 28.0575 0.136806 28.5305L4.35183 35.9695C4.60473 36.4425 5.17376 36.6145 5.63741 36.4425L10.8851 34.2925C11.981 35.1525 13.1612 35.862 14.4468 36.3995L15.2476 42.097C15.3109 42.613 15.7535 43 16.2803 43H24.7104C25.2372 43 25.6798 42.613 25.743 42.097L26.5439 36.3995C27.8295 35.862 29.0097 35.131 30.1056 34.2925L35.3533 36.4425C35.838 36.636 36.386 36.4425 36.6389 35.9695L40.8539 28.5305C41.1279 28.0575 41.0014 27.477 40.601 27.1545L36.1541 23.607C36.2384 22.919 36.3017 22.2095 36.3017 21.5C36.3017 20.7905 36.2384 20.081 36.1541 19.393L40.601 15.8455C41.0014 15.523 41.1068 14.9425 40.8539 14.4695L36.6389 7.0305C36.386 6.5575 35.8169 6.38549 35.3533 6.5575L30.1056 8.7075C29.0097 7.8475 27.8295 7.138 26.5439 6.6005L25.743 0.903C25.6798 0.386997 25.2372 0 24.7104 0H16.2803C15.7535 0 15.3109 0.386997 15.2476 0.903L14.4468 6.6005C13.1612 7.138 11.981 7.869 10.8851 8.7075L5.63741 6.5575C5.15268 6.36399 4.60473 6.5575 4.35183 7.0305L0.136806 14.4695C-0.116093 14.9425 -0.0107193 15.523 0.389709 15.8455L4.83655 19.393ZM20.4953 13.975C24.5628 13.975 27.8716 17.3505 27.8716 21.5C27.8716 25.6495 24.5628 29.025 20.4953 29.025C16.4279 29.025 13.1191 25.6495 13.1191 21.5C13.1191 17.3505 16.4279 13.975 20.4953 13.975Z" fill="#D9D9D9"/>
</svg>
