<svg width="22" height="22" viewBox="0 0 22 22" fill="none" xmlns="http://www.w3.org/2000/svg">
<path d="M0 10.8333C0 8.70455 0.424243 6.8144 1.27273 5.16667C2.12879 3.51137 3.28788 2.23864 4.74243 1.34849C6.20455 0.450758 7.84091 0 9.65152 0C11.2273 0 12.6061 0.318182 13.7879 0.954546C14.9697 1.59091 15.9129 2.39394 16.6212 3.36364V0.348485H22V21.4697H16.6212V18.3788C15.9318 19.3712 14.9849 20.1932 13.7727 20.8485C12.5682 21.4924 11.1818 21.8182 9.60606 21.8182C7.82576 21.8182 6.20455 21.3599 4.74243 20.4394C3.28788 19.5227 2.12879 18.2349 1.27273 16.5758C0.424243 14.9091 0 12.9962 0 10.8333ZM16.6212 10.9091C16.6212 9.61743 16.3636 8.50758 15.8485 7.57576C15.3409 6.64773 14.6553 5.93561 13.7879 5.4394C12.928 4.94697 12.0038 4.69697 11.0152 4.69697C10.0227 4.69697 9.10985 4.9394 8.27273 5.42424C7.43182 5.90909 6.75 6.61743 6.22728 7.54546C5.71212 8.46591 5.45455 9.56061 5.45455 10.8333C5.45455 12.1061 5.71212 13.2235 6.22728 14.1818C6.75 15.1326 7.4394 15.8599 8.28788 16.3636C9.14394 16.8712 10.053 17.1212 11.0152 17.1212C12.0038 17.1212 12.928 16.875 13.7879 16.3788C14.6553 15.8864 15.3409 15.1742 15.8485 14.2424C16.3636 13.3144 16.6212 12.2045 16.6212 10.9091Z" fill="white"/>
</svg>
