<svg width="26" height="27" viewBox="0 0 26 27" fill="none" xmlns="http://www.w3.org/2000/svg">
<path d="M0 13.515C0 10.9189 0.586957 8.58988 1.76087 6.53177C2.93478 4.47742 4.53386 2.87458 6.56187 1.73077C8.59741 0.579432 10.8813 0 13.4097 0C16.3595 0 18.9406 0.760034 21.1605 2.27258C23.388 3.78888 24.9419 5.88461 25.8261 8.56354H19.7308C19.1288 7.29933 18.2747 6.35117 17.1722 5.71906C16.0773 5.08696 14.8094 4.7709 13.3645 4.7709C11.8294 4.7709 10.4599 5.13211 9.25585 5.85451C8.05936 6.57692 7.12625 7.59657 6.45652 8.9097C5.78303 10.2153 5.44816 11.7504 5.44816 13.515C5.44816 15.2609 5.78303 16.796 6.45652 18.1204C7.12625 19.4448 8.05936 20.4682 9.25585 21.1906C10.4599 21.913 11.8294 22.2742 13.3645 22.2742C14.8094 22.2742 16.0773 21.9544 17.1722 21.311C18.2747 20.6601 19.1288 19.7007 19.7308 18.4365H25.8261C24.9419 21.1455 23.3955 23.2525 21.1906 24.7575C18.982 26.255 16.3896 27 13.4097 27C10.8813 27 8.59741 26.4281 6.56187 25.2843C4.53386 24.1329 2.93478 22.5376 1.76087 20.4983C0.586957 18.4515 0 16.1263 0 13.515Z" fill="white"/>
</svg>
