<svg width="22" height="31" viewBox="0 0 22 31" fill="none" xmlns="http://www.w3.org/2000/svg">
<path d="M5.24363 3.33686C5.91771 2.39464 6.84503 1.60512 8.02931 0.968285C9.22105 0.324003 10.5766 0 12.0961 0C13.8725 0 15.4777 0.443177 16.9077 1.32581C18.3453 2.20099 19.4849 3.44113 20.3191 5.04998C21.1607 6.65882 21.5853 8.52835 21.5853 10.6511C21.5853 12.7776 21.1607 14.6583 20.3191 16.297C19.4849 17.9282 18.3453 19.1944 16.9077 20.0956C15.4777 21.0006 13.8725 21.4512 12.0961 21.4512C10.5766 21.4512 9.23594 21.1384 8.074 20.5127C6.91206 19.8871 5.96612 19.0976 5.24363 18.1442V31H0V0.342624H5.24363V3.33686ZM16.2225 10.6511C16.2225 9.39981 15.9618 8.32352 15.4479 7.41855C14.9414 6.50613 14.2636 5.80971 13.4219 5.33301C12.5877 4.85632 11.6827 4.61797 10.7107 4.61797C9.76478 4.61797 8.87098 4.86377 8.02931 5.34791C7.1951 5.83578 6.5173 6.53965 6.00336 7.46324C5.49688 8.38683 5.24363 9.47429 5.24363 10.7256C5.24363 11.9769 5.49688 13.0644 6.00336 13.988C6.5173 14.9116 7.1951 15.6192 8.02931 16.1033C8.87098 16.5912 9.76478 16.8333 10.7107 16.8333C11.6827 16.8333 12.5877 16.5875 13.4219 16.0884C14.2636 15.5931 14.9414 14.8818 15.4479 13.9582C15.9618 13.0272 16.2225 11.9248 16.2225 10.6511Z" fill="white"/>
</svg>
