<svg width="8" height="8" viewBox="0 0 8 8" fill="none" xmlns="http://www.w3.org/2000/svg">
<path d="M7.9697 4.04546C7.9697 4.16667 7.95834 4.3447 7.9394 4.57576H1.81818C1.92803 5.15152 2.20455 5.61364 2.65152 5.95455C3.10606 6.28788 3.67046 6.45455 4.34849 6.45455C5.20455 6.45455 5.91288 6.17425 6.4697 5.60606L7.4394 6.72728C7.0947 7.14394 6.65531 7.46213 6.12122 7.68182C5.58334 7.89395 4.97728 8.00001 4.30303 8.00001C3.44318 8.00001 2.68561 7.82955 2.0303 7.48485C1.38258 7.14394 0.882576 6.66667 0.530303 6.06061C0.174242 5.45455 0 4.76894 0 4C0 3.23485 0.170454 2.54546 0.515152 1.9394C0.856062 1.33333 1.33712 0.859849 1.95455 0.515152C2.56818 0.174242 3.26137 0 4.03031 0C4.78788 0 5.46213 0.174242 6.06061 0.515152C6.65531 0.848485 7.12122 1.31818 7.45455 1.92424C7.79546 2.5303 7.9697 3.23864 7.9697 4.04546ZM4.03031 1.4697C3.44318 1.4697 2.94697 1.64394 2.54546 1.98485C2.14015 2.32955 1.89394 2.78788 1.80303 3.36364H6.22728C6.15531 2.79924 5.91667 2.3447 5.51516 2C5.12122 1.64773 4.625 1.4697 4.03031 1.4697Z" fill="white"/>
</svg>
