<svg width="21" height="22" viewBox="0 0 21 22" fill="none" xmlns="http://www.w3.org/2000/svg">
<path d="M21 10.4546C21 11.2121 20.947 11.9015 20.8485 12.5152H5.4091C5.53788 14.0417 6.07576 15.2387 7.01516 16.1061C7.95455 16.9659 9.10986 17.394 10.4849 17.394C12.4621 17.394 13.8712 16.5417 14.7121 14.8333H20.4697C19.8637 16.8637 18.697 18.5379 16.9697 19.8485C15.2424 21.1629 13.1136 21.8182 10.5909 21.8182C8.56061 21.8182 6.73486 21.3712 5.12122 20.4697C3.51515 19.5606 2.25758 18.2841 1.34849 16.6364C0.44697 14.9811 0 13.072 0 10.9091C0 8.72728 0.443182 6.8144 1.33333 5.16667C2.2197 3.51137 3.46212 2.23864 5.06061 1.34849C6.66667 0.450758 8.50758 0 10.5909 0C12.5985 0 14.3977 0.435607 15.9849 1.30303C17.5796 2.17424 18.8106 3.40152 19.6818 4.98485C20.5606 6.57198 21 8.39395 21 10.4546ZM15.4849 8.92425C15.4546 7.55304 14.9546 6.45455 13.9849 5.63637C13.0227 4.81061 11.8409 4.39394 10.4394 4.39394C9.12501 4.39394 8.01516 4.79546 7.10607 5.59091C6.20455 6.39016 5.65531 7.50001 5.45455 8.92425H15.4849Z" fill="white"/>
</svg>
